<svg xmlns="http://www.w3.org/2000/svg" width="2076" height="386" viewBox="0 0 2076 386">
<defs>
<filter id="shadow" x="-20%" y="-20%" width="140%" height="140%">
<feDropShadow dx="0" dy="3" stdDeviation="6" flood-color="#0f172a" flood-opacity="0.08"/>
</filter>
</defs>
<rect width="100%" height="100%" fill="#f8fafc"/>
<rect x="760.0" y="40.0" width="388.0" height="306.0" rx="16" fill="#ffffff" stroke="#e2e8f0" stroke-width="1.5"/>
<rect x="1204.0" y="61.0" width="388.0" height="264.0" rx="16" fill="#ffffff" stroke="#e2e8f0" stroke-width="1.5"/>
<rect x="1648.0" y="61.0" width="388.0" height="264.0" rx="16" fill="#ffffff" stroke="#e2e8f0" stroke-width="1.5"/>
<rect x="40.0" y="133.0" width="220.0" height="120.0" rx="18" fill="#dbeafe" stroke="#1d4ed8" stroke-width="2.5" filter="url(#shadow)"/>
<text x="58.0" y="161.0" text-anchor="start" font-family="Helvetica, Arial, sans-serif" font-size="22" font-weight="800" fill="#172554">Sort Optimizer</text>
<text x="58.0" y="191.0" text-anchor="start" font-family="Helvetica, Arial, sans-serif" font-size="22" font-weight="800" fill="#172554">Prompt</text>
<text x="58.0" y="221.0" text-anchor="start" font-family="Helvetica, Arial, sans-serif" font-size="14" font-weight="700" fill="#172554">current: V4</text>
<path d="M 260.0 193.0 C 288.0 193.0, 312.0 193.0, 340.0 193.0" fill="none" stroke="#94a3b8" stroke-width="2.5" stroke-linecap="round"/>
<path d="M 676.0 193.0 C 704.0 193.0, 756.0 134.5, 784.0 134.5" fill="none" stroke="#94a3b8" stroke-width="2.5" stroke-linecap="round"/>
<path d="M 676.0 193.0 C 704.0 193.0, 756.0 267.5, 784.0 267.5" fill="none" stroke="#94a3b8" stroke-width="2.5" stroke-linecap="round"/>
<path d="M 1120.0 267.5 C 1148.0 267.5, 1200.0 145.0, 1228.0 145.0" fill="none" stroke="#94a3b8" stroke-width="2.5" stroke-linecap="round"/>
<path d="M 1120.0 267.5 C 1148.0 267.5, 1200.0 257.0, 1228.0 257.0" fill="none" stroke="#94a3b8" stroke-width="2.5" stroke-linecap="round"/>
<path d="M 1564.0 145.0 C 1592.0 145.0, 1644.0 145.0, 1672.0 145.0" fill="none" stroke="#94a3b8" stroke-width="2.5" stroke-linecap="round"/>
<path d="M 1564.0 145.0 C 1592.0 145.0, 1644.0 257.0, 1672.0 257.0" fill="none" stroke="#94a3b8" stroke-width="2.5" stroke-linecap="round"/>
<rect x="340.0" y="138.5" width="336.0" height="109.0" rx="14" fill="#ecfdf5" stroke="#16a34a" stroke-width="2.5" filter="url(#shadow)"/>
<text x="358.0" y="166.5" text-anchor="start" font-family="Helvetica, Arial, sans-serif" font-size="22" font-weight="800" fill="#166534">V1</text>
<text x="358.0" y="196.5" text-anchor="start" font-family="Helvetica, Arial, sans-serif" font-size="13" font-weight="500" fill="#475569">baseline clarity prompt</text>
<text x="358.0" y="217.5" text-anchor="start" font-family="Helvetica, Arial, sans-serif" font-size="12" fill="#166534">
<tspan font-weight="800">score:</tspan>
<tspan font-weight="500"> 1.000</tspan>
</text>
<rect x="784.0" y="80.0" width="336.0" height="109.0" rx="14" fill="#fee2e2" stroke="#dc2626" stroke-width="2.0" filter="url(#shadow)"/>
<text x="802.0" y="108.0" text-anchor="start" font-family="Helvetica, Arial, sans-serif" font-size="22" font-weight="800" fill="#7f1d1d">V2</text>
<text x="802.0" y="138.0" text-anchor="start" font-family="Helvetica, Arial, sans-serif" font-size="13" font-weight="500" fill="#475569">single composite key</text>
<text x="802.0" y="159.0" text-anchor="start" font-family="Helvetica, Arial, sans-serif" font-size="12" fill="#7f1d1d">
<tspan font-weight="800">score:</tspan>
<tspan font-weight="500"> 0.988</tspan>
</text>
<rect x="784.0" y="213.0" width="336.0" height="109.0" rx="14" fill="#ecfdf5" stroke="#16a34a" stroke-width="2.5" filter="url(#shadow)"/>
<text x="802.0" y="241.0" text-anchor="start" font-family="Helvetica, Arial, sans-serif" font-size="22" font-weight="800" fill="#166534">V3</text>
<text x="802.0" y="271.0" text-anchor="start" font-family="Helvetica, Arial, sans-serif" font-size="13" font-weight="500" fill="#475569">stable sort with itemgetter</text>
<text x="802.0" y="292.0" text-anchor="start" font-family="Helvetica, Arial, sans-serif" font-size="12" fill="#166534">
<tspan font-weight="800">score:</tspan>
<tspan font-weight="500"> 0.357</tspan>
</text>
<rect x="1228.0" y="101.0" width="336.0" height="88.0" rx="14" fill="#bbf7d0" stroke="#166534" stroke-width="3.0" filter="url(#shadow)"/>
<text x="1246.0" y="129.0" text-anchor="start" font-family="Helvetica, Arial, sans-serif" font-size="22" font-weight="800" fill="#14532d">V4</text>
<text x="1246.0" y="159.0" text-anchor="start" font-family="Helvetica, Arial, sans-serif" font-size="12" fill="#14532d">
<tspan font-weight="800">score:</tspan>
<tspan font-weight="500"> 0.356</tspan>
</text>
<rect x="1228.0" y="213.0" width="336.0" height="88.0" rx="14" fill="#fee2e2" stroke="#dc2626" stroke-width="2.0" filter="url(#shadow)"/>
<text x="1246.0" y="241.0" text-anchor="start" font-family="Helvetica, Arial, sans-serif" font-size="22" font-weight="800" fill="#7f1d1d">V5</text>
<text x="1246.0" y="271.0" text-anchor="start" font-family="Helvetica, Arial, sans-serif" font-size="12" fill="#7f1d1d">
<tspan font-weight="800">score:</tspan>
<tspan font-weight="500"> 1.143</tspan>
</text>
<rect x="1672.0" y="101.0" width="336.0" height="88.0" rx="14" fill="#fee2e2" stroke="#dc2626" stroke-width="2.0" filter="url(#shadow)"/>
<text x="1690.0" y="129.0" text-anchor="start" font-family="Helvetica, Arial, sans-serif" font-size="22" font-weight="800" fill="#7f1d1d">V6</text>
<text x="1690.0" y="159.0" text-anchor="start" font-family="Helvetica, Arial, sans-serif" font-size="12" fill="#7f1d1d">
<tspan font-weight="800">score:</tspan>
<tspan font-weight="500"> 0.357</tspan>
</text>
<rect x="1672.0" y="213.0" width="336.0" height="88.0" rx="14" fill="#fee2e2" stroke="#dc2626" stroke-width="2.0" filter="url(#shadow)"/>
<text x="1690.0" y="241.0" text-anchor="start" font-family="Helvetica, Arial, sans-serif" font-size="22" font-weight="800" fill="#7f1d1d">V7</text>
<text x="1690.0" y="271.0" text-anchor="start" font-family="Helvetica, Arial, sans-serif" font-size="12" fill="#7f1d1d">
<tspan font-weight="800">score:</tspan>
<tspan font-weight="500"> 1.558</tspan>
</text>
</svg>
